# xmcd
# 
# Track frame offsets:
#	150
#	15802
#	43680
#	57077
#	82775
#	101660
#	126895
#	148190
#	179560
#	200115
#
# Disc length: 3076 seconds
#
# Revision: 1
# Processed by: cddbd v1.4PL0 Copyright (c) Steve Scherf et al.
# Submitted via: Audio-CD-Archiv 2.10.446
#
DISCID=840c020a
DTITLE=John "Long" Hunter - Ride With Me
DYEAR=1900
DGENRE=blues
TTITLE0=Ride With Me
TTITLE1=Irene
TTITLE2=El Paso Rock
TTITLE3=Crazy Love
TTITLE4=Bad Feet
TTITLE5=I Raise My Hands
TTITLE6=Dream About The Devil
TTITLE7=West Texas Homecoming
TTITLE8=Tell Me
TTITLE9=Still Blue
EXTD=
EXTT0=
EXTT1=
EXTT2=
EXTT3=
EXTT4=
EXTT5=
EXTT6=
EXTT7=
EXTT8=
EXTT9=
PLAYORDER=
